<svg xmlns="http://www.w3.org/2000/svg" viewBox="0 0 32 32" width="32" height="32">
  <circle cx="16" cy="16" r="15" fill="#0a0a0f" stroke="#ffd700" stroke-width="1.5"/>
  <path d="M16 4C10 4 6 8 4 12C2 16 4 20 6 22C4 24 2 28 4 32C6 36 12 38 16 36C20 38 26 36 28 32C30 28 28 24 26 22C28 20 30 16 28 12C26 8 22 4 16 4Z" fill="#ffd700" opacity="0.9"/>
  <circle cx="12" cy="14" r="1.5" fill="#0a0a0f"/>
  <circle cx="20" cy="14" r="1.5" fill="#0a0a0f"/>
  <path d="M13 19C15 21 19 21 21 19" stroke="#e63946" stroke-width="1.5" stroke-linecap="round" fill="none"/>
  <path d="M16 2L18 6M16 2L14 6" stroke="#ffd700" stroke-width="1.2" stroke-linecap="round"/>
</svg>
